<svg width="116" height="114" viewBox="0 0 116 114" fill="none" xmlns="http://www.w3.org/2000/svg">
<path d="M29.4517 112.5V67.131M29.4517 112.5H4.07586V57.9035M29.4517 112.5H45.6M85.5862 112.5V67.131H70.2069M85.5862 112.5H110.962L111.324 57.9035H114.038M85.5862 112.5H67.131M85.5862 112.5V57.9035H82.5103M29.4517 67.131H42.5241M29.4517 67.131V57.9035H32.5276M45.6 112.5V94.0483C45.6 88.5254 50.0772 84.0483 55.6 84.0483H56.3655M45.6 112.5H56.3655M67.131 112.5V94.0483C67.131 88.5254 62.6539 84.0483 57.131 84.0483H56.3655M67.131 112.5H56.3655M56.3655 112.5V84.0483M42.5241 67.131V36.3724M42.5241 67.131H70.2069M42.5241 36.3724H70.2069M42.5241 36.3724H38.9975C38.5703 36.3724 38.3398 35.8714 38.6178 35.547L56.3655 14.8414M70.2069 36.3724V67.131M70.2069 36.3724H73.7336C74.1608 36.3724 74.3912 35.8714 74.1132 35.547L56.3655 14.8414M56.3655 14.8414V9.45862M56.3655 9.45862V1H74.8676C75.0704 1 75.1444 1.26714 74.9705 1.3715L68.2124 5.42634C68.0771 5.50754 68.0847 5.70615 68.2259 5.77673L74.8319 9.07974C75.0207 9.17412 74.9535 9.45862 74.7424 9.45862H56.3655ZM32.5276 57.9035V43.2931H24.8379V48.6759H20.9931V43.2931H12.5345V48.6759H8.68966V43.2931H1V57.9035H4.07586M32.5276 57.9035H4.07586M82.5103 57.9035V43.2931H90.2V48.6759H94.0448V43.2931H102.503V48.6759H106.348V43.2931H114.038V57.9035M82.5103 57.9035H114.038" stroke="white" stroke-width="2"/>
<path d="M61.7484 57.1345H50.9829V49.0621C50.9829 46.3006 53.2215 44.0621 55.9829 44.0621H56.7484C59.5099 44.0621 61.7484 46.3006 61.7484 49.0621V57.1345Z" stroke="white" stroke-width="2"/>
<path d="M43.2929 78.2811V85.5862H33.2964V78.2811C33.2964 75.5206 35.5342 73.2828 38.2947 73.2828C41.0551 73.2828 43.2929 75.5206 43.2929 78.2811Z" stroke="white" stroke-width="2"/>
<path d="M80.2036 85.5862H70.207V78.2811C70.207 75.5206 72.4448 73.2828 75.2053 73.2828C77.9658 73.2828 80.2036 75.5206 80.2036 78.2811V85.5862Z" stroke="white" stroke-width="2"/>
</svg>
