<svg width="126" height="136" viewBox="0 0 126 136" fill="none" xmlns="http://www.w3.org/2000/svg">
<path d="M120.108 0V7.25195H126.001V36.2598H95.1807V40.792H113.31V48.0439H89.0615V59.8281H101.299V73.1982H93.5938V67.5332H89.0615V88.6084H82.7158V98.3535H77.0508V103.792H70.252V127.587H77.0508V135.065H62.5469V116.936H56.6553V110.591H51.4424V116.936H45.3242V123.734H38.9785V127.587H45.3242V135.065H31.5V110.591H25.1543V103.792H18.3564V98.3535H12.6904V92.6875H6.11914V85.8887H0V46.0039H8.1582V59.8281H14.7305V65.2666H21.9824V71.6123H31.5V65.2666H37.3926V59.8281H46.6836V53.709H56.6553V46.0039H62.5469V7.25195H68.666V0H120.108ZM75.6914 9.51855V17.2236H83.3965V9.51855H75.6914Z" fill="#102E4A"/>
</svg>
