<svg width="160" height="211" viewBox="0 0 160 211" fill="none" xmlns="http://www.w3.org/2000/svg">
<path d="M11.8894 61.3295C8.66016 86.4439 7.19987 110.302 11.8894 115.461C19.7812 124.142 28.9634 130.952 32.7921 133.424C32.9309 133.514 33.0134 133.663 33.0188 133.828L35.0128 194.646C35.0183 194.814 34.9398 194.972 34.8037 195.07L16.4403 208.186C15.6487 208.752 16.0487 210 17.0216 210H60.9462C61.9302 210 62.3226 208.728 61.5095 208.174L42.2888 195.069C42.1474 194.972 42.0652 194.81 42.0708 194.639L44.0657 133.794C44.0705 133.648 44.1352 133.515 44.2491 133.423C52.661 126.659 67.36 112.405 68.2109 108.421C68.8901 105.24 66.0813 83.8217 64.0552 61.3295M11.8894 61.3295C26.2165 62.73 56.7076 64.6907 64.0552 61.3295M11.8894 61.3295C12.155 59.2638 12.4326 57.1895 12.7197 55.1165M64.0552 61.3295C63.8684 59.2561 63.6784 57.18 63.4858 55.1165M63.4858 55.1165C61.7562 36.5888 58.474 18.7409 57.4565 13.4468C57.2786 12.5216 56.4859 11.8614 55.5438 11.8508C50.0032 11.7883 31.4675 11.6053 21.5216 11.8284C20.5881 11.8493 19.8083 12.517 19.6313 13.4338C17.4586 24.6877 14.8314 39.8694 12.7197 55.1165M63.4858 55.1165C53.8806 55.787 30.2801 56.7257 12.7197 55.1165M16.9183 101.38C15.9126 108.777 18.5275 123.154 37.0331 121.495C60.165 119.421 62.1765 95.346 61.1708 90.3173" stroke="black" stroke-width="2" stroke-linecap="round"/>
<path d="M73.1638 60.0448C75.0665 85.2944 78.4485 108.957 84.0821 113.064C93.5628 119.974 103.93 124.793 108.179 126.442C108.332 126.501 108.443 126.631 108.482 126.791L122.702 185.958C122.741 186.12 122.696 186.292 122.583 186.414L107.242 202.965C106.581 203.679 107.225 204.821 108.178 204.625L151.199 195.765C152.163 195.567 152.291 194.242 151.383 193.863L129.914 184.904C129.756 184.838 129.643 184.696 129.614 184.527L119.295 124.53C119.27 124.386 119.307 124.242 119.4 124.13C126.275 115.808 137.826 98.882 137.826 94.8079C137.826 92.1658 139.619 85.2884 126.544 55.1163M73.1638 60.0448C87.4789 58.5268 119.256 55.9593 126.544 55.1163M73.1638 60.0448C73.0073 57.968 72.8608 55.8804 72.7238 53.792M126.544 55.1163C126.544 55.1163 126.899 56.46 125.212 50.9306M125.212 50.9306C119.641 32.6745 110.571 9.99591 108.135 3.98974C107.774 3.09954 106.835 2.6132 105.894 2.80696L72.7005 9.64266C71.7549 9.83738 71.0833 10.6655 71.1062 11.6306C71.2535 17.8302 71.8233 40.0577 72.7238 53.792M125.212 50.9306C114.148 50.9306 90.2479 51.8262 72.7238 53.792M82.2915 66.1794C82.7983 73.6265 85.2515 113.902 109.926 113.902C133.151 113.902 129.279 83.2192 127.279 78.4967" stroke="black" stroke-width="2" stroke-linecap="round"/>
<path d="M18.9216 171.634C18.8453 171.634 17.8533 171.329 15.3045 170.6C11.5307 169.521 8.83956 169.055 7.97629 168.902C6.07187 168.564 4.99385 167.291 3.68134 165.672C3.03866 164.879 2.52474 164.168 2.06222 163.437C1.51038 162.564 1.29135 161.436 1.34736 160.512C1.42117 159.295 2.67257 158.932 3.53929 158.374C4.45824 157.782 7.12342 157.66 8.64035 157.794C9.43959 157.864 9.72072 158.543 9.83563 158.47C11.5157 157.397 10.4125 155.662 10.8548 154.488C11.2357 153.478 11.8353 152.851 12.4514 152.234C13.3667 151.318 14.7201 151.578 15.6654 151.826C16.6674 152.088 16.956 153.306 17.3226 154.192C17.7032 155.111 17.7667 155.962 17.9584 157.02C18.1205 157.915 18.1894 158.849 18.2477 159.792C18.3231 161.012 18.4596 162.004 18.6513 163.486C18.8077 164.694 18.8823 166.386 19.0365 167.799C19.1362 168.714 19.3442 169.55 19.4794 170.475C19.499 170.707 19.499 170.936 19.5371 171.149C19.5752 171.362 19.6514 171.553 19.8454 171.865" stroke="black" stroke-linecap="round"/>
<path d="M135.613 51.9067C135.613 51.8257 135.613 48.9104 135.634 44.4148C135.642 42.5086 135.817 41.9343 136.041 41.4039C136.537 40.2289 139.2 40.5006 140.394 40.8869C140.878 41.0437 141.212 41.4805 141.559 41.7657C142.503 42.541 141.706 44.7466 141.6 45.5879C141.339 47.6593 144.643 46.1398 145.85 46.8144C146.305 47.0688 146.65 47.2854 146.834 47.6926C147.308 48.7404 146.163 49.8168 145.448 50.5349C144.819 51.1667 143.713 51.3327 142.711 51.5786C141.119 51.9692 139.347 52.6794 137.927 53.1117C136.905 53.4229 136.229 53.6225 135.821 53.7053C135.654 53.7391 135.574 53.4643 135.532 53.2589C135.491 53.0534 135.491 52.8511 135.531 52.6456C135.572 52.4402 135.653 52.2378 135.736 51.9067" stroke="black" stroke-linecap="round"/>
<path d="M150.944 39.7647C150.782 39.6028 150.537 39.3575 150.292 39.011C150.175 38.8457 150.208 38.6241 150.289 38.5805C150.37 38.537 150.532 38.6584 150.595 38.8222C150.658 38.9859 150.618 39.1883 150.698 39.2318C150.956 39.3715 151.351 38.8265 151.496 38.8032C151.478 38.9822 151.275 39.5488 151.11 39.9217C150.945 40.2945 150.824 40.4564 150.699 40.7459" stroke="black" stroke-linecap="round"/>
<path d="M149.473 68.2186C149.187 67.1577 149.105 65.8969 149.206 64.6091C149.241 64.1611 149.51 64.1712 149.634 64.2724C149.902 64.4903 149.922 65.1892 150.226 65.7417C150.356 65.9766 150.815 65.7681 150.982 65.8067C151.109 66.0477 150.824 66.58 150.537 67.3367C150.455 67.5219 150.334 67.6838 150.209 68.0959" stroke="black" stroke-linecap="round"/>
<path d="M126.66 34.7362C126.089 33.0633 125.843 32.2035 125.822 31.9374C125.815 31.8505 126.084 31.9546 126.249 32.0772C126.573 32.3181 126.741 32.7309 126.965 33.0173C127.461 33.652 128.457 32.4893 128.723 32.4059C128.542 33.3442 128.256 33.9169 128.031 34.2634C127.928 34.448 127.847 34.6503 127.641 34.9815" stroke="black" stroke-linecap="round"/>
<path d="M107.895 80.7286C107.855 80.0356 107.773 79.1391 107.387 78.3192C107.208 77.9404 106.752 77.7863 106.305 77.6023C105.663 77.3388 104.995 77.6612 104.587 77.9463C104.138 78.2604 103.849 78.6828 103.665 79.0698C103.445 79.5323 103.684 80.0724 103.887 80.4397C104.622 80.9321 106.411 81.0965 107.627 80.934C107.812 80.8524 107.974 80.731 108.141 80.4833" stroke="black" stroke-linecap="round"/>
<path d="M97.593 90.0497C97.5121 89.9687 97.4299 89.7247 97.2877 89.3573C97.2176 89.1766 97.024 89.071 96.8394 89.0286C96.6548 88.9863 96.4524 89.0268 96.2065 89.1893C95.9606 89.3518 95.6773 89.6351 95.5314 89.9025C95.3854 90.1699 95.3854 90.4127 95.4866 90.639C95.5878 90.8653 95.7901 91.0677 95.9956 91.1112C96.4034 91.0333 96.7738 90.7868 97.1 90.5219C97.2643 90.3784 97.4262 90.2165 97.8383 89.5591" stroke="black" stroke-linecap="round"/>
<path d="M97.9611 81.7097C97.9611 81.3859 97.8801 81.0168 97.6765 80.7709C97.2434 80.2478 96.7358 81.6263 96.6328 81.993C96.5772 82.191 96.8131 82.4407 96.9977 82.6063C97.3846 82.8528 97.9169 82.9362 98.3873 82.8148C98.5338 82.6934 98.4934 82.4505 98.2064 81.7097" stroke="black" stroke-linecap="round"/>
<path d="M95.6309 70.0584C94.2021 70.9562 93.6293 71.4063 93.4042 71.6914C93.2955 71.8292 93.3815 72.0575 93.5036 72.2225C94.0375 72.9442 95.258 72.7566 95.9939 72.6149C96.2763 72.5606 96.2441 72.19 96.2036 71.9428C96.1632 71.6957 96.0822 71.4933 95.9596 71.3284C95.8369 71.1634 95.675 71.042 95.5082 70.9169" stroke="black" stroke-linecap="round"/>
<path d="M27.4393 79.1342C27.3584 78.8914 27.2357 78.5639 26.9917 78.2978C26.8733 78.1687 26.5857 78.3149 26.3999 78.4376C26.2141 78.5602 26.0927 78.7221 26.0099 78.9067C25.9271 79.0913 25.8866 79.2937 25.9467 79.4789C26.0068 79.6641 26.1687 79.8259 26.3533 79.8486C26.7402 79.7499 27.1511 79.4224 27.5184 79.0349C27.6834 78.8497 27.8048 78.6878 27.9299 78.521" stroke="black" stroke-linecap="round"/>
<path d="M28.6659 89.927C28.5849 89.927 28.2599 89.927 27.7699 90.0282C26.7103 90.247 26.9084 91.9691 26.9482 92.2959C26.9662 92.443 27.2309 92.4609 27.4566 92.4008C28.4936 92.1247 29.1933 91.2786 29.728 90.6856C29.7304 90.5415 29.5686 90.4201 29.3637 90.3575C29.1589 90.295 28.9161 90.295 28.6659 90.295" stroke="black" stroke-linecap="round"/>
<path d="M30.8737 99.4935C30.8737 99.4125 30.5903 99.209 29.9992 98.9637C29.4107 98.7195 28.8316 98.9612 28.4845 99.185C28.1379 99.4086 28.1754 99.9412 28.2159 100.369C28.2375 100.597 28.3373 100.838 28.4802 101.003C28.7574 101.324 29.4387 101.333 30.1936 101.272C30.5478 101.244 30.827 101.09 31.0135 100.866C31.1999 100.641 31.2808 100.318 31.2821 100.05C31.2833 99.7817 31.2023 99.5793 31.1189 99.3708" stroke="black" stroke-linecap="round"/>
<path d="M24.005 101.701C23.9241 101.336 23.5978 100.681 23.2109 100.476C22.7603 100.237 22.2082 100.678 21.8207 100.862C21.4473 101.038 21.1854 101.453 21.0014 102.105C20.7358 103.045 21.0603 103.825 21.3454 104.091C21.6334 104.359 22.5676 104.277 23.6095 104.175C24.0038 104.074 24.1252 103.872 24.1878 103.302C24.2503 102.733 24.2503 101.802 24.1277 100.72" stroke="black" stroke-linecap="round"/>
<path d="M101.272 132.485C101.272 132.405 101.191 132.16 100.947 131.813C100.822 131.635 100.541 131.588 100.315 131.607C99.3937 131.684 98.6598 132.402 97.9834 132.974C97.3158 133.538 97.2665 134.607 97.3873 135.426C97.4538 135.877 97.8368 136.204 98.1625 136.409C99.1028 137 100.286 135.431 101.411 134.594C101.669 134.403 101.76 134.166 101.803 133.92C101.845 133.674 101.804 133.391 101.723 133.164C101.641 132.937 101.52 132.775 101.395 132.485" stroke="black" stroke-linecap="round"/>
<path d="M94.2817 141.684C94.2817 141.603 94.1603 141.399 93.8751 141.114C93.5788 140.817 93.0172 140.825 92.4463 140.987C91.1092 141.366 91.0941 142.459 90.9101 142.806C90.8187 142.978 90.8476 143.192 90.9285 143.357C91.0939 143.695 91.4596 143.931 91.7447 144.115C92.4408 143.73 92.9301 143.077 93.2588 142.3C93.3005 142.095 93.3005 141.892 93.3005 141.684" stroke="black" stroke-linecap="round"/>
<path d="M55.5257 145.854C55.4447 145.854 55.0387 145.692 54.4261 145.366C53.9909 145.134 53.8503 144.67 53.7884 144.263C53.7236 143.836 54.8229 143.363 56.0892 142.994C56.5737 142.853 56.7889 143.031 56.9539 143.215C57.297 143.597 57.3654 144.094 57.2642 144.502C57.1417 144.995 56.5497 145.199 56.142 145.281C55.9365 145.282 55.7342 145.201 55.6097 145.059C55.4852 144.916 55.4447 144.713 55.403 144.382" stroke="black" stroke-linecap="round"/>
<path d="M15.5425 145.731C14.9746 145.488 13.7469 144.672 13.417 143.895C13.3367 143.706 13.4968 143.487 13.6396 143.443C14.408 143.209 14.8459 144.542 15.5603 145.219C15.7473 144.385 15.6247 143.649 15.6038 143.18C15.6234 142.953 15.7044 142.751 16.0331 142.052" stroke="black" stroke-linecap="round"/>
<path d="M1.8063 146.222C0.948996 145.815 0.581056 145.284 0.518507 145.038C0.320891 144.261 1.76336 145.934 2.11046 146.058C2.33613 145.616 2.54094 144.998 2.78562 144.529C2.90888 144.302 3.0303 144.1 3.40069 143.646" stroke="black" stroke-linecap="round"/>
<path d="M4.13676 175.534C2.29952 174.432 1.48269 173.942 0.990264 173.207C0.867017 173.023 0.867002 172.799 0.947336 172.675C1.45509 171.888 3.19238 173.243 3.99081 173.693C4.36086 173.901 4.54517 174.305 4.56602 174.532C4.34158 173.576 4.17846 172.108 4.03497 170.858C4.01412 170.55 4.01412 170.226 4.01412 169.893" stroke="black" stroke-linecap="round"/>
<path d="M20.9392 136.165C20.3271 134.859 20.0402 134.245 19.9991 134.08C19.7961 133.265 20.8533 136.035 21.5708 137.267C21.675 136.707 21.8369 135.841 22.3858 135.027C22.7727 134.536 23.3798 133.888 24.0053 133.221" stroke="black" stroke-linecap="round"/>
<path d="M53.9067 29.8646C54.1736 30.4809 54.3497 32.6127 54.6618 34.8806C54.7952 36.9751 55.1501 38.7494 55.5503 40.7959C55.6837 41.3321 55.8598 41.8604 56.0412 42.6715" stroke="black" stroke-linecap="round"/>
<path d="M112.071 27.9969C113.048 30.3048 114.11 32.4312 115.225 35.3235C115.625 36.5241 116.071 37.7728 116.603 39.1482C116.871 39.8192 117.135 40.4356 117.941 41.871" stroke="black" stroke-linecap="round"/>
</svg>
