<svg width="120" height="98" viewBox="0 0 120 98" fill="none" xmlns="http://www.w3.org/2000/svg">
<path d="M1 96.8543H39.7527M1 96.8543V71.665M1 96.8543L39.7527 71.665M39.7527 96.8543V71.665M39.7527 96.8543L1 71.665M39.7527 71.665H1" stroke="white" stroke-width="2"/>
<path d="M17.1469 71.6648V56.8096M46.8572 51.9872V93.6246M56.5454 60.6849V93.6246M39.7526 93.6246H46.8572M46.8572 93.6246V94.9164H56.5454V93.6246M56.5454 93.6246H79.1511V56.8096M63.6501 56.8096H82.3805V45.1838H59.7748M34.5856 45.1838H13.9175V56.8096H46.8572M51.3784 37.4333C50.9478 36.3568 48.9241 33.1705 44.2737 29.0369C39.6234 24.9033 35.4467 32.9121 33.9397 37.4333C40.6568 33.8164 47.0725 40.2321 49.4408 43.8921H51.3784V37.4333ZM51.3784 37.4333C52.0243 31.1898 55.1245 19.8654 62.3583 24.5157C69.5921 29.166 67.5253 34.6345 65.5877 36.7874C62.5736 39.5862 55.512 45.0546 51.3784 44.5379M51.3784 44.5379C46.2114 43.8921 34.5856 43.2462 33.2938 46.4756C32.0021 49.7049 30.7103 58.1014 38.4608 56.8096C46.2114 55.5178 51.3784 46.4756 51.3784 44.5379ZM51.3784 44.5379C53.5313 46.9062 56.5454 53.4511 51.3784 60.6849C56.5454 61.3308 66.2336 60.039 63.6501 49.7049C63.2195 47.3367 60.1623 42.9878 51.3784 44.5379Z" stroke="white" stroke-width="2"/>
<path d="M68.8173 44.5383V28.3914M68.8173 28.3914H65.5879V16.7656H70.7549M68.8173 28.3914H110.799M115.966 28.3914V91.6874H79.1513M115.966 28.3914H118.55V16.7656H110.799M115.966 28.3914H110.799M110.799 28.3914V65.8523M70.7549 16.7656C69.6784 11.3833 69.8507 0.747808 79.1513 1.26451C84.2879 1.54987 87.5595 4.73772 89.5319 8.36917M70.7549 16.7656H76.5678M92.0689 16.7656C91.8761 14.5486 91.1309 11.3131 89.5319 8.36917M92.0689 16.7656H87.5477M92.0689 16.7656H95.9441M89.5319 8.36917C90.5929 5.35507 94.5232 -0.285604 101.757 1.26451C108.991 2.81462 110.799 12.2444 110.799 16.7656M110.799 16.7656H95.9441M76.5678 16.7656C75.9219 15.2585 75.9219 12.3736 81.089 12.8903C86.256 13.407 87.5477 15.6891 87.5477 16.7656M76.5678 16.7656H87.5477M95.9441 16.7656C97.2248 14.6127 100.826 10.436 104.986 10.9527" stroke="white" stroke-width="2"/>
</svg>
