<svg width="137" height="123" viewBox="0 0 137 123" fill="none" xmlns="http://www.w3.org/2000/svg">
<circle cx="35.6141" cy="74.9262" r="33.6141" stroke="white" stroke-width="4" stroke-linecap="round"/>
<circle cx="89.0354" cy="74.9263" r="33.6141" transform="rotate(-154.71 89.0354 74.9263)" stroke="white" stroke-width="4" stroke-linecap="round"/>
<path d="M13.4432 92.7333C10.353 88.87 8.30814 84.2755 7.50535 79.3921C6.70255 74.5087 7.16885 69.5006 8.85938 64.8498C10.5499 60.199 13.4078 56.062 17.1579 52.8369C20.9081 49.6118 25.4244 47.4071 30.2722 46.435" stroke="white" stroke-width="2" stroke-linecap="round"/>
<path d="M116.689 68.2972C117.832 73.1104 117.718 78.138 116.358 82.8964C114.998 87.6547 112.437 91.9836 108.921 95.4665C105.406 98.9493 101.055 101.469 96.2863 102.783C91.5177 104.097 86.4925 104.161 81.694 102.969" stroke="white" stroke-width="2" stroke-linecap="round"/>
<path d="M53.421 97.0974C49.5577 100.188 44.9633 102.232 40.0799 103.035C35.1965 103.838 30.1884 103.372 25.5376 101.681" stroke="white" stroke-width="2" stroke-linecap="round"/>
<path d="M82.4059 47.273C87.2191 46.1294 92.2467 46.2432 97.005 47.6035C101.763 48.9638 106.092 51.5249 109.575 55.0402" stroke="white" stroke-width="2" stroke-linecap="round"/>
<path d="M92.9973 38.32C92.2156 37.0357 90.2101 34.6923 88.5753 32.7506C87.2226 31.144 86.2798 29.5314 85.6586 28.1268C84.9071 26.4276 84.6491 25.3253 84.6475 21.8312C84.647 20.7733 85.0946 20.2233 85.4855 19.6921C85.8953 19.1351 86.5504 18.7658 87.3868 18.4296C89.7309 17.4872 91.4743 18.9272 92.7973 19.7131C94.0417 20.4523 94.8431 21.7278 95.4324 22.6835C95.5516 22.8769 95.9056 22.7432 96.1594 22.5759C97.3015 21.8234 98.8138 20.1745 100.361 19.2979C101.486 18.6606 102.741 18.3724 105.204 18.4817C106.231 18.5273 106.668 19.4903 107.059 19.9089C107.939 20.8485 107.623 23.3417 107.176 25.3144C106.89 26.5781 105.891 28.1125 104.852 29.4061C104.101 30.3415 103.312 31.4209 102.415 32.3211C101.407 33.3316 100.176 34.3359 99.0534 35.2907C97.9321 36.2448 96.8134 37.2508 95.8308 37.9535C95.5778 38.0947 95.3004 38.2057 95.0465 38.3738C94.7927 38.5419 94.5708 38.7638 94.3422 38.9924" stroke="white" stroke-width="2" stroke-linecap="round"/>
<path d="M78.876 28.7379C76.7679 29.5146 74.9608 30.1365 73.6462 30.556C73.0527 30.7535 72.6089 30.9199 72.0475 31.0889C71.486 31.2578 70.8203 31.4243 69.9663 31.7638" stroke="white" stroke-width="2" stroke-linecap="round"/>
<path d="M76.5224 19.3239C75.302 18.8801 74.0815 18.4363 73.2864 18.0967C72.4912 17.7571 72.1583 17.5352 71.8759 17.2822C71.5935 17.0292 71.3716 16.7519 70.6387 15.9618" stroke="white" stroke-width="2" stroke-linecap="round"/>
<path d="M84.4236 11.4229C84.2018 10.7572 83.921 10.1368 83.5579 9.60563C83.3612 9.35179 83.1393 9.12989 82.7476 8.65498C82.3559 8.18008 81.8012 7.4589 81.0615 6.21155" stroke="white" stroke-width="2" stroke-linecap="round"/>
<path d="M94.6782 8.56506C94.9001 6.34604 95.0144 4.59269 95.0422 3.52941C95.0699 3.07636 95.1254 2.79899 95.154 2.4342C95.1825 2.0694 95.1825 1.6256 95.3506 1.00024" stroke="white" stroke-width="2" stroke-linecap="round"/>
<path d="M111.993 13.272C113.657 12.4954 115.322 11.7187 116.345 11.2354C117.369 10.7521 117.702 10.5857 118.045 10.4142" stroke="white" stroke-width="2" stroke-linecap="round"/>
<path d="M115.691 22.1817L127.795 25.3757" stroke="white" stroke-width="2" stroke-linecap="round"/>
<path d="M112.33 35.6303C112.773 35.6303 113.446 35.7967 114.257 36.0766C114.902 36.2455 115.409 36.4691 115.856 36.8045C116.082 36.9735 116.304 37.1399 116.7 37.4795" stroke="white" stroke-width="2" stroke-linecap="round"/>
</svg>
