<svg width="123" height="81" viewBox="0 0 123 81" fill="none" xmlns="http://www.w3.org/2000/svg">
<mask id="path-1-inside-1_275_283" fill="white">
<path d="M96.4368 5.47489C96.8888 6.48274 96.4266 7.65363 95.4992 8.2536C90.2036 11.6794 88.0524 18.5483 90.7131 24.4812C93.3738 30.414 99.934 33.3762 106.014 31.7002C107.079 31.4067 108.261 31.8403 108.713 32.8481L110.35 36.4979C110.802 37.5058 110.351 38.6892 109.343 39.1412L19.0115 79.6526C18.0037 80.1046 16.8202 79.654 16.3682 78.6461L14.7314 74.9964C14.2794 73.9885 14.7416 72.8176 15.669 72.2176C20.9646 68.7918 23.1158 61.9229 20.4551 55.99C17.7943 50.0572 11.2342 47.0951 5.15383 48.7711C4.08898 49.0646 2.90723 48.6309 2.45524 47.6231L0.818412 43.9733C0.366415 42.9655 0.817029 41.782 1.82488 41.33L92.1567 0.818646C93.1645 0.36665 94.348 0.817263 94.7999 1.82512L96.4368 5.47489Z"/>
</mask>
<path d="M106.014 31.7002L105.483 29.7721L106.014 31.7002ZM15.669 72.2176L16.7553 73.8969L15.669 72.2176ZM95.4992 8.2536L94.4129 6.57435C88.301 10.5282 85.8174 18.4523 88.8882 25.2996L90.7131 24.4812L92.538 23.6628C90.2874 18.6444 92.1061 12.8307 96.5855 9.93285L95.4992 8.2536ZM90.7131 24.4812L88.8882 25.2996C91.959 32.1469 99.5283 35.5626 106.546 33.6283L106.014 31.7002L105.483 29.7721C100.34 31.1898 94.7886 28.6812 92.538 23.6628L90.7131 24.4812ZM108.713 32.8481L106.888 33.6666L108.525 37.3163L110.35 36.4979L112.175 35.6795L110.538 32.0297L108.713 32.8481ZM109.343 39.1412L108.525 37.3163L18.1931 77.8277L19.0115 79.6526L19.8299 81.4775L110.162 40.9661L109.343 39.1412ZM16.3682 78.6461L18.1931 77.8277L16.5563 74.1779L14.7314 74.9964L12.9065 75.8148L14.5433 79.4645L16.3682 78.6461ZM15.669 72.2176L16.7553 73.8969C22.8671 69.9431 25.3508 62.0189 22.28 55.1716L20.4551 55.99L18.6302 56.8085C20.8808 61.8269 19.0621 67.6406 14.5827 70.5384L15.669 72.2176ZM20.4551 55.99L22.28 55.1716C19.2091 48.3244 11.6399 44.9087 4.62237 46.843L5.15383 48.7711L5.6853 50.6992C10.8285 49.2815 16.3796 51.79 18.6302 56.8085L20.4551 55.99ZM2.45524 47.6231L4.28012 46.8047L2.6433 43.1549L0.818412 43.9733L-1.00647 44.7917L0.630351 48.4415L2.45524 47.6231ZM1.82488 41.33L2.6433 43.1549L92.9751 2.64353L92.1567 0.818646L91.3382 -1.00624L1.00647 39.5051L1.82488 41.33ZM94.7999 1.82512L92.9751 2.64353L94.6119 6.2933L96.4368 5.47489L98.2617 4.65648L96.6248 1.00671L94.7999 1.82512ZM92.1567 0.818646L92.9751 2.64353V2.64353L94.7999 1.82512L96.6248 1.00671C95.7208 -1.009 93.354 -1.91023 91.3382 -1.00624L92.1567 0.818646ZM0.818412 43.9733L2.6433 43.1549V43.1549L1.82488 41.33L1.00647 39.5051C-1.00924 40.4091 -1.91047 42.776 -1.00647 44.7917L0.818412 43.9733ZM5.15383 48.7711L4.62237 46.843C4.50836 46.8744 4.39931 46.8614 4.32961 46.833C4.29823 46.8202 4.28392 46.8082 4.28059 46.8051C4.27893 46.8035 4.28029 46.8051 4.28012 46.8047L2.45524 47.6231L0.630351 48.4415C1.56023 50.5149 3.85406 51.2039 5.6853 50.6992L5.15383 48.7711ZM19.0115 79.6526L18.1931 77.8277L18.1931 77.8277L16.3682 78.6461L14.5433 79.4645C15.4473 81.4802 17.8142 82.3815 19.8299 81.4775L19.0115 79.6526ZM110.35 36.4979L108.525 37.3163V37.3163L109.343 39.1412L110.162 40.9661C112.177 40.0621 113.079 37.6952 112.175 35.6795L110.35 36.4979ZM106.014 31.7002L106.546 33.6283C106.66 33.5968 106.769 33.6098 106.839 33.6382C106.87 33.651 106.884 33.6631 106.888 33.6662C106.889 33.6677 106.888 33.6662 106.888 33.6666L108.713 32.8481L110.538 32.0297C109.608 29.9563 107.314 29.2673 105.483 29.7721L106.014 31.7002ZM14.7314 74.9964L16.5563 74.1779C16.5561 74.1776 16.5564 74.1796 16.5563 74.1773C16.5562 74.1728 16.5567 74.1541 16.568 74.1221C16.5932 74.0512 16.656 73.9611 16.7553 73.8969L15.669 72.2176L14.5827 70.5384C12.9878 71.5702 11.9767 73.7413 12.9065 75.8148L14.7314 74.9964ZM95.4992 8.2536L96.5855 9.93285C98.1804 8.90108 99.1915 6.7299 98.2617 4.65648L96.4368 5.47489L94.6119 6.2933C94.6121 6.29368 94.6118 6.29164 94.6119 6.29391C94.612 6.29845 94.6115 6.31717 94.6001 6.34912C94.575 6.42006 94.5122 6.51011 94.4129 6.57435L95.4992 8.2536Z" fill="white" mask="url(#path-1-inside-1_275_283)"/>
<path d="M48.1699 59.1381C48.6219 60.146 48.1713 61.3294 47.1635 61.7814L28.0022 70.3748C26.9943 70.8268 25.8109 70.3762 25.3589 69.3683L25.1567 68.9175C24.8314 68.1922 24.9779 67.3508 25.4523 66.713C28.259 62.9385 28.9965 57.7982 26.935 53.2014C24.8734 48.6045 20.5441 45.7356 15.8586 45.3211C15.0668 45.2511 14.3411 44.8009 14.0158 44.0756L13.814 43.6257C13.362 42.6178 13.8126 41.4344 14.8205 40.9824L33.9818 32.389C34.9896 31.937 36.1731 32.3877 36.6251 33.3955L48.1699 59.1381Z" fill="white"/>
<path d="M36.7188 31.1606L49.8133 60.3588" stroke="white" stroke-dasharray="3 3"/>
<path d="M35.4887 48.13C35.5742 48.118 35.5851 48.1172 35.4907 48.1329L35.4887 48.13C35.2542 48.1629 34.459 48.2803 33.7344 48.3748C32.2703 48.5657 31.275 48.8108 30.9552 48.8882C30.2497 49.0589 29.676 48.7668 28.9664 48.3863C28.6189 48.1999 28.3286 48.0233 28.0526 47.8314C27.7233 47.6023 27.4666 47.2306 27.3369 46.8901C27.1659 46.4413 27.5354 46.1192 27.7417 45.7857C27.9605 45.432 28.3488 45.0175 28.889 44.8331C29.1736 44.7359 29.8824 44.8986 29.9099 44.8547C30.3115 44.2118 29.6546 43.7572 29.6167 43.2678C29.5841 42.8463 29.6881 42.529 29.7993 42.213C29.9646 41.7434 30.4693 41.6294 30.8324 41.5735C31.2173 41.5142 31.5121 41.9074 31.7802 42.1694C32.0585 42.4414 32.2173 42.7375 32.4534 43.0884C32.653 43.3851 32.8271 43.7101 32.999 44.04C33.2213 44.4666 33.4279 44.8024 33.7322 45.3054C33.9804 45.7156 34.2785 46.312 34.559 46.7962L35.4887 48.13Z" fill="#5C95FF"/>
<path d="M25.7271 43.762C25.5037 43.7898 24.9881 43.7777 24.7876 43.6363C24.7388 43.6018 24.7698 43.5228 24.8144 43.4898C25.0542 43.3125 25.3538 43.575 25.6763 43.6322C25.6482 43.3962 25.5239 43.2328 25.4646 43.1197C25.4462 43.0605 25.4517 42.9978 25.4876 42.7734" stroke="#5C95FF" stroke-linecap="round"/>
<path d="M26.6007 39.7837C26.3301 39.5512 26.2031 39.442 26.1771 39.409C26.0488 39.2458 26.5681 39.7631 26.8551 39.9681C26.8221 39.8312 26.7712 39.6195 26.813 39.3801C26.8509 39.2302 26.9228 39.0225 26.9969 38.8086" stroke="#5C95FF" stroke-linecap="round"/>
<path d="M65.3433 35.1158L61.508 37.6421L61.3477 35.8999L55.8567 34.7345L57.1068 33.3676L55.4925 32.0761L57.7112 31.4841L57.6262 29.9098L61.2651 31.0997L58.1019 27.2778L59.8789 27.0856L60.3012 23.8728L62.9812 25.6943L64.3065 24.4952L65.2291 29.3219L66.7608 25.8132L67.7075 27.0011L69.6471 25.325L69.4942 28.2153L71.3682 27.778L68.4141 32.7309L69.7808 33.9319L65.3433 35.1158ZM65.3433 35.1158L66.8485 38.4719" stroke="white"/>
<path d="M53.4353 53.9308L55.0213 53.2194L55.1782 53.5692L53.18 54.4653L51.7254 51.2219L52.1375 51.0371L53.4353 53.9308ZM57.4548 52.5482L57.2815 52.2272C57.2546 52.382 57.196 52.5198 57.1056 52.6406C57.0146 52.7599 56.8904 52.8548 56.733 52.9254C56.6068 52.982 56.4838 53.014 56.364 53.0213C56.2435 53.0272 56.1283 53.0049 56.0182 52.9543C55.9081 52.9038 55.8044 52.8237 55.707 52.7139C55.6105 52.602 55.5219 52.4562 55.4413 52.2766L54.7989 50.8442L55.2111 50.6594L55.8554 52.0962C55.914 52.2269 55.9731 52.3306 56.0325 52.4074C56.0919 52.4842 56.1537 52.5386 56.218 52.5704C56.2828 52.6037 56.3497 52.6175 56.4184 52.6116C56.4886 52.6051 56.5631 52.5842 56.6418 52.5489C56.7338 52.5076 56.8116 52.4603 56.8751 52.4068C56.9378 52.3519 56.9873 52.2932 57.0234 52.2306C57.054 52.1794 57.076 52.125 57.0893 52.0673C57.1035 52.0074 57.1101 51.9465 57.109 51.8845L56.3338 50.1558L56.7481 49.97L57.8291 52.3803L57.4548 52.5482ZM58.6065 52.0317L57.5256 49.6214L57.8954 49.4555L58.0842 49.799C58.0972 49.7325 58.1151 49.6691 58.1381 49.6089C58.1618 49.5465 58.1905 49.4891 58.224 49.4366C58.274 49.3571 58.3349 49.2861 58.4067 49.2235C58.4794 49.1588 58.5622 49.1047 58.6551 49.0613C58.7813 49.0047 58.9036 48.9712 59.0221 48.9609C59.142 48.9499 59.2554 48.966 59.3621 49.0091C59.4688 49.0522 59.5678 49.1238 59.6591 49.2238C59.7511 49.3216 59.8331 49.4507 59.905 49.6111L60.5914 51.1415L60.1793 51.3263L59.4969 49.8049C59.449 49.6979 59.3964 49.6127 59.3394 49.5491C59.2823 49.4855 59.2204 49.441 59.1538 49.4156C59.0856 49.3909 59.0127 49.3834 58.935 49.3933C58.8589 49.4025 58.777 49.4267 58.6894 49.466C58.6136 49.5 58.5481 49.5427 58.4927 49.5943C58.4367 49.6444 58.3896 49.7003 58.3513 49.7621C58.3214 49.8148 58.2968 49.8713 58.2775 49.9317C58.2597 49.9914 58.2483 50.0536 58.2434 50.1182L59.0186 51.8468L58.6065 52.0317ZM62.9304 50.0925C62.9001 50.0687 62.8694 50.0361 62.8383 49.9947C62.8081 49.9511 62.7795 49.9051 62.7524 49.8566C62.7294 49.9169 62.7003 49.9772 62.665 50.0376C62.6311 50.0974 62.5901 50.1551 62.5418 50.2106C62.4921 50.2668 62.436 50.3187 62.3736 50.3663C62.3111 50.414 62.2405 50.4554 62.1618 50.4907C62.0341 50.548 61.9099 50.5814 61.7893 50.5909C61.6702 50.5997 61.5607 50.5882 61.4607 50.5563C61.36 50.5266 61.2702 50.4776 61.1915 50.4095C61.1136 50.3392 61.052 50.2535 61.0067 50.1525C60.9474 50.0204 60.9215 49.8929 60.9288 49.7701C60.9377 49.6466 60.9754 49.5298 61.0419 49.4197C61.1092 49.311 61.203 49.2101 61.3235 49.1168C61.4455 49.0228 61.5904 48.9382 61.7582 48.863L62.2082 48.6612L62.1233 48.4718C62.0906 48.3991 62.048 48.3397 61.9953 48.2938C61.9426 48.2478 61.8824 48.2151 61.8147 48.1955C61.7477 48.1774 61.6736 48.1731 61.5923 48.1828C61.5125 48.1919 61.4288 48.216 61.3412 48.2553C61.2595 48.2919 61.1907 48.3353 61.1346 48.3854C61.0801 48.4348 61.0382 48.4866 61.009 48.5408C60.9798 48.5949 60.9632 48.6514 60.9592 48.7102C60.9561 48.7669 60.9659 48.8205 60.9885 48.871L60.5742 49.0568C60.5364 48.9685 60.52 48.8724 60.5251 48.7685C60.5317 48.6638 60.5613 48.5587 60.6138 48.4531C60.6655 48.3496 60.7407 48.2508 60.8394 48.1566C60.9395 48.0617 61.0646 47.9807 61.2146 47.9134C61.3512 47.8521 61.4859 47.8123 61.6185 47.7938C61.7505 47.7739 61.8745 47.778 61.9906 47.8062C62.1059 47.8365 62.2107 47.8912 62.305 47.9702C62.3993 48.0492 62.4768 48.1563 62.5374 48.2915L63.0399 49.412C63.0759 49.4922 63.1216 49.5742 63.1771 49.6581C63.2319 49.7406 63.2876 49.8092 63.3443 49.8641L63.3603 49.8997L62.9304 50.0925ZM62.0611 50.1051C62.1413 50.0692 62.2116 50.0251 62.2721 49.973C62.3326 49.9209 62.3841 49.8648 62.4267 49.8047C62.4678 49.7452 62.4995 49.6846 62.5218 49.6229C62.5434 49.5597 62.5554 49.499 62.5579 49.4408L62.3391 48.953L61.9559 49.1248C61.8133 49.1888 61.6943 49.2573 61.5986 49.3305C61.5039 49.4016 61.4366 49.4763 61.3969 49.5548C61.3683 49.6104 61.3531 49.6681 61.3514 49.7277C61.3511 49.7867 61.3649 49.8474 61.3929 49.9098C61.4195 49.9692 61.4538 50.0198 61.4958 50.0617C61.5392 50.1028 61.5889 50.1322 61.645 50.1499C61.7018 50.169 61.7653 50.1754 61.8355 50.1688C61.9057 50.1623 61.9809 50.1411 62.0611 50.1051ZM66.1991 47.155C66.1185 46.9753 66.0669 46.8004 66.0441 46.6305C66.0222 46.4583 66.0293 46.2991 66.0653 46.1527C66.0999 46.007 66.1629 45.8771 66.2544 45.7629C66.3459 45.6487 66.4652 45.5587 66.6122 45.4927C66.7562 45.4281 66.8927 45.3964 67.0216 45.3974C67.1514 45.3963 67.2762 45.4242 67.3962 45.4809L66.8358 44.2312L67.2479 44.0464L68.7824 47.4681L68.4037 47.6379L68.272 47.3919C68.2358 47.5259 68.1733 47.6431 68.0845 47.7436C67.9958 47.844 67.8772 47.9275 67.7287 47.9941C67.5831 48.0594 67.437 48.0875 67.2902 48.0784C67.1449 48.0687 67.006 48.0275 66.8736 47.9549C66.7411 47.8823 66.6186 47.782 66.5059 47.6542C66.3926 47.5248 66.2973 47.374 66.2201 47.2018L66.1991 47.155ZM66.6322 47.0169C66.6848 47.1343 66.7474 47.24 66.8199 47.3341C66.8924 47.4282 66.9734 47.5034 67.0629 47.5596C67.1508 47.6165 67.2463 47.6504 67.3493 47.6613C67.4516 47.6707 67.5599 47.6497 67.6743 47.5985C67.8124 47.5365 67.9128 47.454 67.9754 47.351C68.038 47.248 68.0724 47.1318 68.0786 47.0024L67.5771 45.8841C67.4796 45.8101 67.3716 45.7622 67.2531 45.7405C67.1338 45.7172 67.0067 45.7359 66.8715 45.7965C66.7557 45.8485 66.6668 45.9169 66.605 46.0017C66.5446 46.0858 66.5064 46.1797 66.4904 46.2832C66.4736 46.3888 66.4765 46.5008 66.4992 46.619C66.5213 46.7358 66.5586 46.8528 66.6112 46.9702L66.6322 47.0169ZM68.5502 44.6771L69.7821 44.1246L70.7032 46.1785L71.4895 45.8259L71.6494 46.1823L69.6311 47.0874L69.4713 46.731L70.2911 46.3634L69.5308 44.6681L68.711 45.0358L68.5502 44.6771ZM69.0328 43.7008C69.0168 43.6652 69.007 43.6294 69.0034 43.5936C69.0013 43.557 69.0071 43.5223 69.0209 43.4894C69.0315 43.4614 69.0494 43.4356 69.0744 43.4119C69.1003 43.386 69.1325 43.3644 69.1711 43.3471C69.2097 43.3298 69.2466 43.3204 69.2816 43.319C69.316 43.316 69.3471 43.3199 69.3751 43.3305C69.4082 43.3407 69.4377 43.3587 69.4635 43.3845C69.4894 43.4104 69.5106 43.4419 69.5273 43.479C69.5573 43.5458 69.5614 43.6109 69.5398 43.6741C69.5182 43.7373 69.4666 43.7872 69.3849 43.8238C69.3018 43.8611 69.2294 43.8668 69.1678 43.8409C69.1078 43.8143 69.0627 43.7676 69.0328 43.7008ZM74.1549 42.1635L74.268 42.3858C74.279 42.2791 74.3132 42.1844 74.3706 42.1016C74.4295 42.0181 74.515 41.9503 74.6273 41.8982C74.6911 41.8696 74.7516 41.8513 74.8088 41.8435C74.8667 41.8336 74.921 41.8333 74.9716 41.8428C75.0092 41.8509 75.0457 41.8648 75.0813 41.8845C75.1184 41.9036 75.1535 41.928 75.1864 41.9578C75.1919 41.9143 75.2021 41.8714 75.217 41.829C75.2319 41.7867 75.2507 41.747 75.2734 41.7101C75.3036 41.6662 75.3407 41.6255 75.3845 41.588C75.4298 41.5499 75.4826 41.5164 75.5428 41.4876C75.626 41.4503 75.7066 41.4293 75.7848 41.4246C75.8623 41.4184 75.9347 41.4287 76.002 41.4556C76.0765 41.4864 76.1464 41.5389 76.2118 41.613C76.2765 41.6857 76.3348 41.7799 76.3868 41.8958L77.194 43.6957L76.8019 43.8715L75.9927 42.0671C75.97 42.0166 75.9441 41.9748 75.9149 41.9415C75.8857 41.9082 75.8543 41.8839 75.8207 41.8687C75.7863 41.8556 75.7486 41.8511 75.7077 41.8552C75.6682 41.8586 75.6254 41.8706 75.5794 41.8913C75.5304 41.9133 75.491 41.9389 75.4614 41.9683C75.4317 41.9976 75.41 42.0288 75.3963 42.0617C75.3831 42.0961 75.3769 42.1319 75.3775 42.1691C75.3775 42.2048 75.3836 42.2422 75.3958 42.2813C75.3991 42.2888 75.4024 42.2962 75.4057 42.3036C75.4084 42.3095 75.4117 42.317 75.4157 42.3259L76.225 44.1303L75.8329 44.3061L75.0227 42.4995C75 42.449 74.9741 42.4071 74.9449 42.3738C74.9172 42.3399 74.8858 42.3156 74.8507 42.301C74.8178 42.2872 74.7819 42.2828 74.7431 42.2877C74.7051 42.2905 74.6638 42.3019 74.6193 42.3219C74.5702 42.3438 74.5298 42.3691 74.498 42.3976C74.4671 42.424 74.4436 42.4533 74.4277 42.4854C74.4157 42.5104 74.407 42.5366 74.4014 42.564C74.3974 42.5908 74.3962 42.6181 74.398 42.6459L75.2582 44.5639L74.8661 44.7397L73.7851 42.3294L74.1549 42.1635ZM76.7702 40.9907L78.0021 40.4382L78.9232 42.4921L79.7095 42.1394L79.8694 42.4958L77.8511 43.401L77.6913 43.0446L78.5111 42.6769L77.7508 40.9817L76.931 41.3493L76.7702 40.9907ZM77.2528 40.0143C77.2368 39.9787 77.227 39.943 77.2234 39.9071C77.2213 39.8706 77.2271 39.8359 77.2409 39.8029C77.2515 39.775 77.2694 39.7491 77.2944 39.7254C77.3203 39.6996 77.3525 39.678 77.3911 39.6606C77.4297 39.6433 77.4666 39.6339 77.5016 39.6325C77.536 39.6296 77.5671 39.6334 77.5951 39.6441C77.6282 39.6542 77.6576 39.6722 77.6835 39.6981C77.7094 39.7239 77.7306 39.7554 77.7473 39.7926C77.7773 39.8594 77.7814 39.9244 77.7598 39.9876C77.7382 40.0508 77.6866 40.1007 77.6049 40.1374C77.5218 40.1747 77.4494 40.1804 77.3878 40.1544C77.3278 40.1279 77.2827 40.0812 77.2528 40.0143ZM81.6113 41.7681C81.442 41.8441 81.2731 41.885 81.1046 41.8911C80.9375 41.8964 80.7802 41.8698 80.6326 41.8111C80.4849 41.7524 80.351 41.6645 80.2306 41.5472C80.1102 41.4299 80.0124 41.2874 79.9371 41.1196L79.8952 41.026C79.8079 40.8315 79.7612 40.6437 79.755 40.4628C79.7481 40.2804 79.7726 40.1124 79.8286 39.9588C79.8838 39.8074 79.9641 39.6742 80.0695 39.5592C80.1763 39.4435 80.2988 39.3546 80.4369 39.2927C80.6107 39.2148 80.7758 39.1773 80.9323 39.1802C81.0897 39.181 81.235 39.2148 81.3685 39.2816C81.5026 39.3499 81.6227 39.4468 81.7289 39.5722C81.8366 39.6969 81.928 39.8432 82.0033 40.011L82.0862 40.1959L80.3642 40.9682L80.3712 40.9838C80.4342 41.0964 80.5035 41.1893 80.5792 41.2624C80.6562 41.3349 80.742 41.391 80.8365 41.4306C80.9345 41.4741 81.0389 41.496 81.1496 41.4963C81.2603 41.4966 81.3714 41.4717 81.4827 41.4218C81.6298 41.3558 81.7471 41.2675 81.8348 41.1568C81.9226 41.0462 81.9823 40.9248 82.0141 40.7928L82.3537 40.876C82.3281 41.0337 82.2565 41.1961 82.1387 41.3631C82.0218 41.5279 81.846 41.6629 81.6113 41.7681ZM80.5888 39.6313C80.5056 39.6686 80.4339 39.7195 80.3736 39.784C80.3127 39.847 80.2655 39.9208 80.2321 40.0053C80.1993 40.0914 80.1815 40.1868 80.1785 40.2916C80.1764 40.3942 80.1921 40.5049 80.2257 40.6236L81.5222 40.0421L81.5132 40.0221C81.4799 39.9478 81.4302 39.8747 81.364 39.8027C81.2972 39.7292 81.2245 39.6726 81.1461 39.6329C81.0676 39.5932 80.9811 39.5713 80.8865 39.5673C80.7935 39.5627 80.6942 39.584 80.5888 39.6313ZM81.7966 37.5217L83.0285 36.9692L84.4032 40.0345L85.1895 39.6818L85.3494 40.0382L83.3311 40.9433L83.1713 40.5869L83.9911 40.2193L82.7772 37.5127L81.9575 37.8803L81.7966 37.5217ZM87.0913 39.3105C86.922 39.3864 86.7531 39.4274 86.5846 39.4334C86.4175 39.4388 86.2602 39.4121 86.1126 39.3535C85.9649 39.2948 85.831 39.2068 85.7106 39.0896C85.5902 38.9723 85.4924 38.8298 85.4171 38.662L85.3752 38.5684C85.2879 38.3738 85.2412 38.1861 85.235 38.0052C85.2281 37.8227 85.2526 37.6548 85.3086 37.5012C85.3638 37.3498 85.4441 37.2166 85.5495 37.1016C85.6563 36.9858 85.7788 36.897 85.9169 36.8351C86.0907 36.7572 86.2558 36.7197 86.4123 36.7226C86.5697 36.7234 86.715 36.7572 86.8485 36.824C86.9826 36.8923 87.1027 36.9892 87.2089 37.1146C87.3166 37.2393 87.408 37.3856 87.4833 37.5534L87.5662 37.7383L85.8442 38.5106L85.8512 38.5261C85.9142 38.6388 85.9835 38.7317 86.0592 38.8048C86.1362 38.8773 86.222 38.9333 86.3165 38.973C86.4145 39.0165 86.5189 39.0384 86.6296 39.0386C86.7403 39.0389 86.8514 39.0141 86.9627 38.9641C87.1098 38.8982 87.2271 38.8099 87.3148 38.6992C87.4026 38.5885 87.4623 38.4672 87.4941 38.3352L87.8337 38.4183C87.8081 38.5761 87.7365 38.7384 87.6187 38.9054C87.5018 39.0703 87.326 39.2053 87.0913 39.3105ZM86.0688 37.1737C85.9856 37.211 85.9139 37.2619 85.8536 37.3264C85.7927 37.3894 85.7455 37.4631 85.7121 37.5477C85.6793 37.6337 85.6615 37.7292 85.6585 37.8339C85.6564 37.9366 85.6721 38.0472 85.7057 38.166L87.0022 37.5845L86.9932 37.5645C86.9599 37.4902 86.9102 37.4171 86.844 37.3451C86.7772 37.2716 86.7045 37.215 86.6261 37.1753C86.5476 37.1355 86.4611 37.1137 86.3665 37.1097C86.2735 37.1051 86.1742 37.1264 86.0688 37.1737Z" fill="white"/>
<mask id="path-10-inside-2_275_283" fill="white">
<path d="M86.2512 12.089C86.5609 12.7795 86.4435 13.5788 86.021 14.2067C83.5184 17.9255 82.9342 22.8134 84.9035 27.2044C86.8727 31.5951 90.9109 34.4084 95.3521 35.0129C96.1019 35.115 96.7769 35.5589 97.0865 36.2494L97.4417 37.0414C97.8937 38.0493 97.4431 39.2327 96.4353 39.6847L28.0021 70.3752C26.9943 70.8272 25.8108 70.3766 25.3588 69.3687L25.1566 68.9179C24.8313 68.1926 24.9778 67.3512 25.4522 66.7134C28.2589 62.9389 28.9963 57.7985 26.9349 53.2018C24.8733 48.6047 20.5438 45.7351 15.8582 45.3206C15.0663 45.2506 14.3406 44.8004 14.0153 44.075L13.8135 43.6252C13.3615 42.6173 13.8121 41.4339 14.82 40.9819L83.2532 10.2914C84.261 9.83945 85.4445 10.2901 85.8965 11.2979L86.2512 12.089Z"/>
</mask>
<path d="M84.9035 27.2044L84.4473 27.409L84.4473 27.409L84.9035 27.2044ZM26.9349 53.2018L27.3911 52.9972L27.3911 52.9972L26.9349 53.2018ZM95.3521 35.0129L95.2847 35.5084L95.3521 35.0129ZM86.021 14.2067L85.6061 13.9275C83.0112 17.7836 82.4044 22.8538 84.4473 27.409L84.9035 27.2044L85.3597 26.9998C83.4641 22.7729 84.0256 18.0674 86.4358 14.4858L86.021 14.2067ZM84.9035 27.2044L84.4473 27.409C86.4901 31.9639 90.6796 34.8815 95.2847 35.5084L95.3521 35.0129L95.4195 34.5175C91.1422 33.9352 87.2553 31.2263 85.3597 26.9998L84.9035 27.2044ZM97.0865 36.2494L96.6303 36.454L96.9855 37.246L97.4417 37.0414L97.898 36.8368L97.5427 36.0448L97.0865 36.2494ZM96.4353 39.6847L96.2307 39.2285L27.7975 69.9189L28.0021 70.3752L28.2067 70.8314L96.6399 40.141L96.4353 39.6847ZM25.3588 69.3687L25.815 69.1641L25.6129 68.7133L25.1566 68.9179L24.7004 69.1225L24.9026 69.5733L25.3588 69.3687ZM25.4522 66.7134L25.8534 67.0117C28.7638 63.0979 29.5297 57.7659 27.3911 52.9972L26.9349 53.2018L26.4787 53.4064C28.463 57.8312 27.7541 62.7799 25.051 66.415L25.4522 66.7134ZM26.9349 53.2018L27.3911 52.9972C25.2524 48.2283 20.7609 45.2524 15.9022 44.8226L15.8582 45.3206L15.8141 45.8187C20.3267 46.2179 24.4941 48.9812 26.4787 53.4064L26.9349 53.2018ZM14.0153 44.075L14.4715 43.8704L14.2697 43.4206L13.8135 43.6252L13.3573 43.8298L13.5591 44.2796L14.0153 44.075ZM14.82 40.9819L15.0246 41.4381L83.4578 10.7477L83.2532 10.2914L83.0486 9.83522L14.6154 40.5257L14.82 40.9819ZM85.8965 11.2979L85.4402 11.5025L85.795 12.2936L86.2512 12.089L86.7075 11.8844L86.3527 11.0933L85.8965 11.2979ZM83.2532 10.2914L83.4578 10.7477C84.2136 10.4087 85.1012 10.7466 85.4402 11.5025L85.8965 11.2979L86.3527 11.0933C85.7877 9.83349 84.3084 9.27023 83.0486 9.83522L83.2532 10.2914ZM13.8135 43.6252L14.2697 43.4206C13.9308 42.6647 14.2687 41.7771 15.0246 41.4381L14.82 40.9819L14.6154 40.5257C13.3556 41.0907 12.7923 42.57 13.3573 43.8298L13.8135 43.6252ZM15.8582 45.3206L15.9022 44.8226C15.2628 44.766 14.7119 44.4064 14.4715 43.8704L14.0153 44.075L13.5591 44.2796C13.9693 45.1943 14.8698 45.7351 15.8141 45.8187L15.8582 45.3206ZM28.0021 70.3752L27.7975 69.9189C27.0416 70.2579 26.154 69.92 25.815 69.1641L25.3588 69.3687L24.9026 69.5733C25.4676 70.8331 26.9469 71.3964 28.2067 70.8314L28.0021 70.3752ZM97.4417 37.0414L96.9855 37.246C97.3245 38.0019 96.9866 38.8895 96.2307 39.2285L96.4353 39.6847L96.6399 40.141C97.8997 39.576 98.463 38.0967 97.898 36.8368L97.4417 37.0414ZM95.3521 35.0129L95.2847 35.5084C95.8892 35.5907 96.4014 35.9435 96.6303 36.454L97.0865 36.2494L97.5427 36.0448C97.1523 35.1743 96.3146 34.6393 95.4195 34.5175L95.3521 35.0129ZM25.1566 68.9179L25.6129 68.7133C25.3725 68.1773 25.4704 67.5268 25.8534 67.0117L25.4522 66.7134L25.051 66.415C24.4853 67.1757 24.2902 68.2078 24.7004 69.1225L25.1566 68.9179ZM86.021 14.2067L86.4358 14.4858C86.9401 13.7364 87.0979 12.7549 86.7075 11.8844L86.2512 12.089L85.795 12.2936C86.0239 12.8041 85.9468 13.4213 85.6061 13.9275L86.021 14.2067Z" fill="white" mask="url(#path-10-inside-2_275_283)"/>
<mask id="path-12-inside-3_275_283" fill="white">
<path d="M121 38C122.105 38 123 38.8954 123 40V44C123 45.1044 122.099 45.9833 121.008 46.1514C114.774 47.1102 110 52.4978 110 59C110 65.5022 114.774 70.8898 121.008 71.8486C122.099 72.0167 123 72.8956 123 74V78C123 79.1046 122.105 80 121 80H22C20.8954 80 20 79.1046 20 78V77.9424L109.768 38H121Z"/>
</mask>
<path d="M121.008 46.1514L121.16 47.1397L121.16 47.1397L121.008 46.1514ZM121.008 71.8486L121.16 70.8603L121.16 70.8603L121.008 71.8486ZM121 80V81V80ZM20 77.9424L19.5935 77.0287L19 77.2928V77.9424H20ZM109.768 38V37H109.555L109.361 37.0864L109.768 38ZM121 38V39C121.552 39 122 39.4477 122 40H123H124C124 38.3431 122.657 37 121 37V38ZM123 40H122V44H123H124V40H123ZM123 44H122C122 44.5204 121.555 45.0554 120.856 45.163L121.008 46.1514L121.16 47.1397C122.644 46.9112 124 45.6885 124 44H123ZM121.008 46.1514L120.856 45.163C114.142 46.1957 109 51.9967 109 59H110H111C111 52.9989 115.406 48.0247 121.16 47.1397L121.008 46.1514ZM110 59H109C109 66.0033 114.142 71.8042 120.856 72.837L121.008 71.8486L121.16 70.8603C115.406 69.9753 111 65.0011 111 59H110ZM121.008 71.8486L120.856 72.837C121.555 72.9446 122 73.4796 122 74H123H124C124 72.3115 122.644 71.0888 121.16 70.8603L121.008 71.8486ZM123 74H122V78H123H124V74H123ZM123 78H122C122 78.5523 121.552 79 121 79V80V81C122.657 81 124 79.6569 124 78H123ZM121 80V79H22V80V81H121V80ZM22 80V79C21.4477 79 21 78.5523 21 78H20H19C19 79.6569 20.3431 81 22 81V80ZM20 78H21V77.9424H20H19V78H20ZM20 77.9424L20.4065 78.856L110.174 38.9136L109.768 38L109.361 37.0864L19.5935 77.0287L20 77.9424ZM109.768 38V39H121V38V37H109.768V38Z" fill="white" mask="url(#path-12-inside-3_275_283)"/>
<path d="M57 73.2139C56.9998 74.3183 56.1045 75.2139 55 75.2139H34C32.8955 75.2139 32.0002 74.3183 32 73.2139V72.8271L57 61.7041V73.2139Z" fill="white"/>
<path d="M58 62L58 75" stroke="white" stroke-dasharray="3 3"/>
<path d="M82.5 58.322L77.9667 59.0576L78.5333 57.4025L74 54.0921L75.7 53.3565M82.5 58.322L87.0333 59.0576L86.2778 57.4025L91 54.0921L89.1111 53.7243L90.4333 51.1496L87.9778 51.8852L87.6 50.414L84.7667 52.9887L85.7522 48.7588M82.5 58.322V62.0002M78.5333 52.5002L80.4222 52.9887L80 51.5002" stroke="white"/>
<path d="M63.9351 70.6167H65.6733V71H63.4834V67.4453H63.9351V70.6167ZM68.1685 71L68.1416 70.6362C68.0537 70.7664 67.9438 70.8682 67.812 70.9414C67.6802 71.013 67.528 71.0488 67.3555 71.0488C67.2171 71.0488 67.0918 71.0277 66.9795 70.9854C66.8672 70.9414 66.7712 70.8739 66.6914 70.7827C66.6117 70.6916 66.5498 70.576 66.5059 70.436C66.4635 70.2944 66.4424 70.1252 66.4424 69.9282V68.3584H66.894V69.9331C66.894 70.0763 66.9054 70.1951 66.9282 70.2896C66.951 70.384 66.9852 70.4588 67.0308 70.5142C67.0763 70.5711 67.1317 70.611 67.1968 70.6338C67.2635 70.6566 67.34 70.668 67.4263 70.668C67.5272 70.668 67.6175 70.6566 67.6973 70.6338C67.777 70.6094 67.8462 70.576 67.9048 70.5337C67.9536 70.4995 67.9959 70.4588 68.0317 70.4116C68.0692 70.3628 68.1001 70.3099 68.1245 70.2529V68.3584H68.5786V71H68.1685ZM69.4307 71V68.3584H69.8359L69.8677 68.749C69.9067 68.6937 69.9491 68.6432 69.9946 68.5977C70.0418 68.5505 70.0915 68.5098 70.1436 68.4756C70.2217 68.4235 70.3063 68.3836 70.3975 68.356C70.4902 68.3267 70.5879 68.3112 70.6904 68.3096C70.8288 68.3096 70.9541 68.3291 71.0664 68.3682C71.1803 68.4072 71.2772 68.4683 71.3569 68.5513C71.4367 68.6343 71.4977 68.7401 71.54 68.8687C71.584 68.9956 71.606 69.147 71.606 69.3228V71H71.1543V69.3325C71.1543 69.2153 71.1413 69.116 71.1152 69.0347C71.0892 68.9533 71.0509 68.8874 71.0005 68.8369C70.9484 68.7865 70.8849 68.7498 70.8101 68.7271C70.7368 68.7043 70.6522 68.6929 70.5562 68.6929C70.4731 68.6929 70.3958 68.7051 70.3242 68.7295C70.2526 68.7523 70.1867 68.784 70.1265 68.8247C70.0776 68.8605 70.0321 68.902 69.9897 68.9492C69.9491 68.9964 69.9132 69.0485 69.8823 69.1055V71H69.4307ZM74.1694 71C74.1515 70.9658 74.1369 70.9235 74.1255 70.873C74.1157 70.821 74.1084 70.7673 74.1035 70.7119C74.0579 70.7575 74.0067 70.8006 73.9497 70.8413C73.8944 70.882 73.8333 70.9178 73.7666 70.9487C73.6982 70.9797 73.6258 71.0041 73.5493 71.022C73.4728 71.0399 73.3914 71.0488 73.3052 71.0488C73.1652 71.0488 73.0382 71.0285 72.9243 70.9878C72.812 70.9471 72.7168 70.8918 72.6387 70.8218C72.5589 70.7534 72.4971 70.672 72.4531 70.5776C72.4108 70.4816 72.3896 70.3783 72.3896 70.2676C72.3896 70.1227 72.4181 69.9958 72.4751 69.8867C72.5337 69.7777 72.6159 69.6865 72.7217 69.6133C72.8275 69.5417 72.9544 69.488 73.1025 69.4521C73.2523 69.4163 73.4191 69.3984 73.603 69.3984H74.0962V69.1909C74.0962 69.1112 74.0815 69.0396 74.0522 68.9761C74.0229 68.9126 73.9814 68.8581 73.9277 68.8125C73.874 68.7686 73.8081 68.7344 73.73 68.71C73.6535 68.6855 73.5672 68.6733 73.4712 68.6733C73.3817 68.6733 73.3011 68.6847 73.2295 68.7075C73.1595 68.7303 73.1001 68.7604 73.0513 68.7979C73.0024 68.8353 72.9642 68.88 72.9365 68.9321C72.9105 68.9826 72.8975 69.0355 72.8975 69.0908H72.4434C72.445 68.9948 72.4694 68.9004 72.5166 68.8076C72.5654 68.7148 72.6354 68.631 72.7266 68.5562C72.8161 68.4829 72.9251 68.4235 73.0537 68.3779C73.1839 68.3324 73.3312 68.3096 73.4956 68.3096C73.6453 68.3096 73.7845 68.3283 73.9131 68.3657C74.0417 68.4015 74.1532 68.4561 74.2476 68.5293C74.3403 68.6042 74.4136 68.6969 74.4673 68.8076C74.521 68.9183 74.5479 69.0477 74.5479 69.1958V70.4238C74.5479 70.5117 74.556 70.6053 74.5723 70.7046C74.5885 70.8022 74.6113 70.8877 74.6406 70.9609V71H74.1694ZM73.3711 70.6558C73.459 70.6558 73.5412 70.6444 73.6177 70.6216C73.6942 70.5988 73.7642 70.5687 73.8276 70.5312C73.8895 70.4938 73.9432 70.4515 73.9888 70.4043C74.0343 70.3555 74.0701 70.305 74.0962 70.2529V69.7183H73.6763C73.52 69.7183 73.3833 69.7321 73.2661 69.7598C73.1506 69.7858 73.0586 69.8265 72.9902 69.8818C72.9414 69.9209 72.904 69.9673 72.8779 70.021C72.8535 70.0747 72.8413 70.1357 72.8413 70.2041C72.8413 70.2692 72.8519 70.3294 72.873 70.3848C72.8958 70.4401 72.9292 70.4873 72.9731 70.5264C73.0171 70.5671 73.0724 70.5988 73.1392 70.6216C73.2059 70.6444 73.2832 70.6558 73.3711 70.6558ZM78.354 69.6572C78.354 69.4603 78.3784 69.2796 78.4272 69.1152C78.4777 68.9492 78.5493 68.8068 78.6421 68.688C78.7332 68.5692 78.8439 68.4764 78.9741 68.4097C79.1043 68.3429 79.25 68.3096 79.4111 68.3096C79.569 68.3096 79.7065 68.3364 79.8237 68.3901C79.9425 68.4422 80.0451 68.5187 80.1313 68.6196V67.25H80.583V71H80.168L80.1484 70.7217C80.0605 70.8291 79.9556 70.9105 79.8335 70.9658C79.7114 71.0212 79.569 71.0488 79.4062 71.0488C79.2467 71.0488 79.1019 71.0146 78.9717 70.9463C78.8431 70.8779 78.7332 70.7835 78.6421 70.6631C78.5509 70.5426 78.4801 70.401 78.4297 70.2383C78.3792 70.0739 78.354 69.8973 78.354 69.7085V69.6572ZM78.8057 69.7085C78.8057 69.8371 78.8195 69.9591 78.8472 70.0747C78.8748 70.1903 78.918 70.292 78.9766 70.3799C79.0335 70.4678 79.1068 70.5378 79.1963 70.5898C79.2858 70.6403 79.3932 70.6655 79.5186 70.6655C79.6699 70.6655 79.7952 70.6313 79.8945 70.563C79.9938 70.4946 80.0728 70.4027 80.1313 70.2871V69.0615C80.0728 68.9541 79.9938 68.8662 79.8945 68.7979C79.7952 68.7279 79.6715 68.6929 79.5234 68.6929C79.3965 68.6929 79.2874 68.7189 79.1963 68.771C79.1068 68.8231 79.0335 68.8931 78.9766 68.981C78.918 69.0705 78.8748 69.1738 78.8472 69.291C78.8195 69.4066 78.8057 69.5286 78.8057 69.6572V69.7085ZM81.5132 68.3584H82.8633V70.6094H83.7251V71H81.5132V70.6094H82.4116V68.7515H81.5132V68.3584ZM82.353 67.665C82.353 67.626 82.3587 67.5894 82.3701 67.5552C82.3831 67.521 82.4027 67.4917 82.4287 67.4673C82.4499 67.4461 82.4767 67.4299 82.5093 67.4185C82.5435 67.4054 82.5817 67.3989 82.624 67.3989C82.6663 67.3989 82.7038 67.4054 82.7363 67.4185C82.7689 67.4299 82.7957 67.4461 82.8169 67.4673C82.8429 67.4901 82.8625 67.5186 82.8755 67.5527C82.8885 67.5869 82.895 67.6243 82.895 67.665C82.895 67.7383 82.8722 67.7993 82.8267 67.8481C82.7811 67.897 82.7135 67.9214 82.624 67.9214C82.5329 67.9214 82.4645 67.897 82.4189 67.8481C82.375 67.7993 82.353 67.7383 82.353 67.665ZM87.6558 68.3584L87.668 68.6074C87.7217 68.5146 87.7917 68.4422 87.8779 68.3901C87.9658 68.3381 88.0716 68.3112 88.1953 68.3096C88.2653 68.3096 88.328 68.3177 88.3833 68.334C88.4403 68.3486 88.4899 68.3706 88.5322 68.3999C88.5632 68.4227 88.5908 68.4504 88.6152 68.4829C88.6413 68.5155 88.6632 68.5521 88.6812 68.5928C88.7039 68.5553 88.7308 68.5203 88.7617 68.4878C88.7926 68.4552 88.826 68.4268 88.8618 68.4023C88.9074 68.3747 88.9578 68.3527 89.0132 68.3364C89.0701 68.3201 89.132 68.3112 89.1987 68.3096C89.2899 68.3096 89.3721 68.3234 89.4453 68.3511C89.5186 68.3771 89.5804 68.4162 89.6309 68.4683C89.6862 68.5269 89.7285 68.6034 89.7578 68.6978C89.7871 68.7905 89.8018 68.9004 89.8018 69.0273V71H89.3721V69.0225C89.3721 68.9671 89.3656 68.9183 89.3525 68.876C89.3395 68.8337 89.3208 68.7987 89.2964 68.771C89.2703 68.745 89.2378 68.7254 89.1987 68.7124C89.1613 68.6994 89.1174 68.6929 89.0669 68.6929C89.0132 68.6929 88.9668 68.7002 88.9277 68.7148C88.8887 68.7295 88.8561 68.749 88.8301 68.7734C88.804 68.7995 88.7837 68.8296 88.769 68.8638C88.7544 68.8963 88.7446 68.9329 88.7397 68.9736C88.7397 68.9818 88.7397 68.9899 88.7397 68.998C88.7397 69.0046 88.7397 69.0127 88.7397 69.0225V71H88.3101V69.02C88.3101 68.9647 88.3035 68.9159 88.2905 68.8735C88.2791 68.8312 88.2604 68.7962 88.2344 68.7686C88.21 68.7425 88.179 68.7238 88.1416 68.7124C88.1058 68.6994 88.0635 68.6929 88.0146 68.6929C87.9609 68.6929 87.9137 68.6994 87.873 68.7124C87.834 68.7238 87.8006 68.7409 87.7729 68.7637C87.7518 68.7816 87.7331 68.8019 87.7168 68.8247C87.7021 68.8475 87.6899 68.8719 87.6802 68.8979V71H87.2505V68.3584H87.6558ZM90.522 68.3584H91.8721V70.6094H92.7339V71H90.522V70.6094H91.4204V68.7515H90.522V68.3584ZM91.3618 67.665C91.3618 67.626 91.3675 67.5894 91.3789 67.5552C91.3919 67.521 91.4115 67.4917 91.4375 67.4673C91.4587 67.4461 91.4855 67.4299 91.5181 67.4185C91.5522 67.4054 91.5905 67.3989 91.6328 67.3989C91.6751 67.3989 91.7126 67.4054 91.7451 67.4185C91.7777 67.4299 91.8045 67.4461 91.8257 67.4673C91.8517 67.4901 91.8713 67.5186 91.8843 67.5527C91.8973 67.5869 91.9038 67.6243 91.9038 67.665C91.9038 67.7383 91.881 67.7993 91.8354 67.8481C91.7899 67.897 91.7223 67.9214 91.6328 67.9214C91.5417 67.9214 91.4733 67.897 91.4277 67.8481C91.3838 67.7993 91.3618 67.7383 91.3618 67.665ZM94.6211 71.0488C94.4355 71.0488 94.2646 71.0171 94.1084 70.9536C93.9538 70.8901 93.8211 70.8014 93.7104 70.6875C93.5998 70.5736 93.5135 70.4385 93.4517 70.2822C93.3898 70.126 93.3589 69.9559 93.3589 69.772V69.6694C93.3589 69.4562 93.3931 69.2658 93.4614 69.0981C93.5298 68.9289 93.6209 68.7856 93.7349 68.6685C93.8472 68.5529 93.9749 68.4642 94.1182 68.4023C94.263 68.3405 94.4111 68.3096 94.5625 68.3096C94.7529 68.3096 94.9189 68.3429 95.0605 68.4097C95.2038 68.4748 95.3226 68.5651 95.417 68.6807C95.5114 68.7979 95.5814 68.9354 95.627 69.0933C95.6742 69.2511 95.6978 69.422 95.6978 69.606V69.8086H93.8105V69.8257C93.8219 69.9543 93.8472 70.0674 93.8862 70.165C93.9269 70.2627 93.9823 70.349 94.0522 70.4238C94.1239 70.5036 94.2101 70.5662 94.311 70.6118C94.4119 70.6574 94.5234 70.6802 94.6455 70.6802C94.8066 70.6802 94.9499 70.6476 95.0752 70.5825C95.2005 70.5174 95.3047 70.4312 95.3877 70.3237L95.6636 70.5386C95.5757 70.672 95.4438 70.7909 95.2681 70.895C95.0939 70.9976 94.8783 71.0488 94.6211 71.0488ZM94.5625 68.6807C94.4714 68.6807 94.3851 68.6978 94.3037 68.7319C94.2223 68.7645 94.1491 68.8125 94.084 68.876C94.0189 68.9411 93.9635 69.0208 93.918 69.1152C93.874 69.208 93.8431 69.3154 93.8252 69.4375H95.2461V69.4155C95.2461 69.3341 95.2306 69.2471 95.1997 69.1543C95.1688 69.0599 95.1257 68.9785 95.0703 68.9102C95.015 68.8418 94.945 68.7865 94.8604 68.7441C94.7773 68.7018 94.6781 68.6807 94.5625 68.6807ZM96.5278 67.25H97.8779V70.6094H98.7397V71H96.5278V70.6094H97.4263V67.6431H96.5278V67.25ZM100.627 71.0488C100.441 71.0488 100.271 71.0171 100.114 70.9536C99.9596 70.8901 99.827 70.8014 99.7163 70.6875C99.6056 70.5736 99.5194 70.4385 99.4575 70.2822C99.3957 70.126 99.3647 69.9559 99.3647 69.772V69.6694C99.3647 69.4562 99.3989 69.2658 99.4673 69.0981C99.5356 68.9289 99.6268 68.7856 99.7407 68.6685C99.853 68.5529 99.9808 68.4642 100.124 68.4023C100.269 68.3405 100.417 68.3096 100.568 68.3096C100.759 68.3096 100.925 68.3429 101.066 68.4097C101.21 68.4748 101.328 68.5651 101.423 68.6807C101.517 68.7979 101.587 68.9354 101.633 69.0933C101.68 69.2511 101.704 69.422 101.704 69.606V69.8086H99.8164V69.8257C99.8278 69.9543 99.853 70.0674 99.8921 70.165C99.9328 70.2627 99.9881 70.349 100.058 70.4238C100.13 70.5036 100.216 70.5662 100.317 70.6118C100.418 70.6574 100.529 70.6802 100.651 70.6802C100.812 70.6802 100.956 70.6476 101.081 70.5825C101.206 70.5174 101.311 70.4312 101.394 70.3237L101.669 70.5386C101.582 70.672 101.45 70.7909 101.274 70.895C101.1 70.9976 100.884 71.0488 100.627 71.0488ZM100.568 68.6807C100.477 68.6807 100.391 68.6978 100.31 68.7319C100.228 68.7645 100.155 68.8125 100.09 68.876C100.025 68.9411 99.9694 69.0208 99.9238 69.1152C99.8799 69.208 99.849 69.3154 99.8311 69.4375H101.252V69.4155C101.252 69.3341 101.236 69.2471 101.206 69.1543C101.175 69.0599 101.132 68.9785 101.076 68.9102C101.021 68.8418 100.951 68.7865 100.866 68.7441C100.783 68.7018 100.684 68.6807 100.568 68.6807Z" fill="white"/>
<path d="M109.204 43.0107C110.213 43.113 111 43.9643 111 45V45.8672L110.995 46.0078C110.945 46.7077 110.525 47.3301 109.923 47.7051L109.57 47.9326C105.962 50.3387 103.585 54.4454 103.585 59.1074C103.585 63.9195 106.119 68.1388 109.924 70.5078C110.566 70.9078 111 71.5891 111 72.3457V73.2139L110.989 73.418C110.894 74.3595 110.146 75.1077 109.204 75.2031L109 75.2139H34C32.8954 75.2139 32 74.3184 32 73.2139V72.8271L32.5049 72.6025C32.5047 72.6052 32.5041 72.6077 32.5039 72.6104L32.5 72.7197V73.2139C32.5 74.0423 33.1716 74.7139 34 74.7139H109C109.828 74.7139 110.5 74.0423 110.5 73.2139V72.3457C110.5 71.7864 110.177 71.2551 109.659 70.9326C105.714 68.4762 103.085 64.0994 103.085 59.1074C103.085 54.1152 105.714 49.7369 109.659 47.2803C110.177 46.9578 110.5 46.4265 110.5 45.8672V45C110.5 44.1716 109.828 43.5 109 43.5H97.9121L99.0361 43H109L109.204 43.0107Z" fill="white"/>
</svg>
