<svg width="137" height="123" viewBox="0 0 137 123" fill="none" xmlns="http://www.w3.org/2000/svg">
<circle cx="35.6141" cy="74.9263" r="33.6141" stroke="white" stroke-width="4" stroke-linecap="round"/>
<circle cx="89.0354" cy="74.9263" r="33.6141" transform="rotate(-154.71 89.0354 74.9263)" stroke="white" stroke-width="4" stroke-linecap="round"/>
<path d="M13.4429 92.7333C10.3528 88.87 8.30789 84.2756 7.5051 79.3922C6.70231 74.5088 7.16861 69.5007 8.85914 64.8499C10.5497 60.1991 13.4075 56.0621 17.1577 52.837C20.9079 49.6119 25.4241 47.4072 30.2719 46.4351" stroke="white" stroke-width="2" stroke-linecap="round"/>
<path d="M116.688 68.2972C117.832 73.1104 117.718 78.138 116.358 82.8963C114.997 87.6547 112.436 91.9836 108.921 95.4664C105.406 98.9493 101.055 101.469 96.286 102.783C91.5175 104.097 86.4922 104.161 81.6938 102.969" stroke="white" stroke-width="2" stroke-linecap="round"/>
<path d="M53.421 97.0974C49.5577 100.188 44.9633 102.232 40.0799 103.035C35.1965 103.838 30.1884 103.372 25.5376 101.681" stroke="white" stroke-width="2" stroke-linecap="round"/>
<path d="M82.4061 47.2729C87.2193 46.1293 92.2469 46.2432 97.0053 47.6035C101.764 48.9638 106.093 51.5248 109.575 55.0401" stroke="white" stroke-width="2" stroke-linecap="round"/>
<path d="M92.9971 38.3199C92.2154 37.0356 90.2099 34.6922 88.575 32.7505C87.2223 31.144 86.2795 29.5313 85.6584 28.1267C84.9069 26.4275 84.6489 25.3252 84.6472 21.8311C84.6467 20.7732 85.0944 20.2232 85.4852 19.692C85.895 19.135 86.5502 18.7657 87.3865 18.4295C89.7307 17.4871 91.474 18.9271 92.797 19.713C94.0414 20.4522 94.8429 21.7278 95.4321 22.6834C95.5513 22.8768 95.9053 22.7431 96.1592 22.5758C97.3013 21.8233 98.8136 20.1744 100.361 19.2978C101.486 18.6605 102.741 18.3723 105.203 18.4816C106.231 18.5272 106.668 19.4902 107.059 19.9088C107.938 20.8484 107.622 23.3416 107.176 25.3143C106.89 26.578 105.891 28.1125 104.852 29.406C104.101 30.3414 103.312 31.4208 102.414 32.321C101.407 33.3315 100.175 34.3358 99.0531 35.2906C97.9319 36.2447 96.8131 37.2507 95.8305 37.9534C95.5775 38.0946 95.3001 38.2056 95.0463 38.3737C94.7925 38.5418 94.5706 38.7637 94.3419 38.9923" stroke="white" stroke-width="2" stroke-linecap="round"/>
<path d="M78.8762 28.7378C76.7681 29.5144 74.961 30.1364 73.6464 30.5559C73.053 30.7534 72.6092 30.9198 72.0477 31.0888C71.4862 31.2577 70.8205 31.4241 69.9666 31.7637" stroke="white" stroke-width="2" stroke-linecap="round"/>
<path d="M76.5224 19.3238C75.302 18.88 74.0815 18.4362 73.2864 18.0966C72.4912 17.7571 72.1583 17.5351 71.8759 17.2821C71.5935 17.0291 71.3716 16.7518 70.6387 15.9617" stroke="white" stroke-width="2" stroke-linecap="round"/>
<path d="M84.4236 11.423C84.2018 10.7573 83.921 10.137 83.5579 9.60575C83.3612 9.35191 83.1393 9.13001 82.7476 8.65511C82.3559 8.1802 81.8012 7.45902 81.0615 6.21167" stroke="white" stroke-width="2" stroke-linecap="round"/>
<path d="M94.6782 8.56506C94.9001 6.34604 95.0144 4.59269 95.0422 3.52941C95.0699 3.07636 95.1254 2.79899 95.154 2.4342C95.1825 2.0694 95.1825 1.6256 95.3506 1.00024" stroke="white" stroke-width="2" stroke-linecap="round"/>
<path d="M111.993 13.2721C113.657 12.4955 115.321 11.7188 116.345 11.2355C117.369 10.7522 117.702 10.5858 118.045 10.4143" stroke="white" stroke-width="2" stroke-linecap="round"/>
<path d="M115.691 22.1816L127.795 25.3757" stroke="white" stroke-width="2" stroke-linecap="round"/>
<path d="M112.33 35.6304C112.773 35.6304 113.446 35.7968 114.257 36.0767C114.902 36.2456 115.409 36.4692 115.856 36.8046C116.082 36.9735 116.304 37.14 116.7 37.4795" stroke="white" stroke-width="2" stroke-linecap="round"/>
</svg>
